<svg width="14" height="14" viewBox="0 0 14 14" fill="none" xmlns="http://www.w3.org/2000/svg">
<path id="Mask" fill-rule="evenodd" clip-rule="evenodd" d="M13.9921 1.22383C13.9921 0.583333 13.4741 0.0618333 12.8325 0.0583333L3.50729 0H3.50029C2.85862 0 2.33829 0.518 2.33363 1.15967C2.32896 1.80367 2.84812 2.32983 3.49329 2.33333L9.97762 2.37417L0.342125 12.0085C-0.114042 12.4647 -0.114042 13.2032 0.342125 13.6582C0.569625 13.8868 0.868292 14 1.16696 14C1.46562 14 1.76429 13.8868 1.99179 13.6582L11.6611 3.98883L11.667 10.5012C11.667 11.1452 12.1896 11.6667 12.8336 11.6667H12.8348C13.4788 11.6667 14.0003 11.1428 14.0003 10.4988L13.9921 1.22383Z" fill="#255751"/>
</svg>
