<svg width="14" height="16" viewBox="0 0 14 16" fill="none" xmlns="http://www.w3.org/2000/svg">
<path id="Mask" fill-rule="evenodd" clip-rule="evenodd" d="M8.49976 12.7564C8.49976 13.4306 7.81276 14.0006 6.99976 14.0006C6.18676 14.0006 5.49976 13.4306 5.49976 12.7564V12.5006H8.49976V12.7564ZM13.3905 10.4059L12.0398 9.05362V5.70262C12.0398 3.09187 10.1633 0.874871 7.67401 0.544871C6.23326 0.353621 4.77826 0.793121 3.68701 1.75012C2.58901 2.71162 1.95976 4.09537 1.95976 5.54587L1.95901 9.05362L0.609013 10.4066C0.257263 10.7584 0.153013 11.2834 0.343513 11.7431C0.534763 12.2029 0.979513 12.5006 1.47751 12.5006H3.99976V12.7564C3.99976 14.2699 5.34526 15.5006 6.99976 15.5006C8.65426 15.5006 9.99976 14.2699 9.99976 12.7564V12.5006H12.5213C13.0193 12.5006 13.464 12.2036 13.6545 11.7431C13.8458 11.2834 13.7415 10.7584 13.3905 10.4059Z" fill="white"/>
</svg>
