<svg width="16" height="14" viewBox="0 0 16 14" fill="none" xmlns="http://www.w3.org/2000/svg">
<path id="Mask" fill-rule="evenodd" clip-rule="evenodd" d="M6.5 2.125C6.5 1.918 6.668 1.75 6.875 1.75H9.125C9.332 1.75 9.5 1.918 9.5 2.125V3.25H6.5V2.125ZM4.25 13.75H11.75V3.25H11V2.125C11 1.0915 10.1585 0.25 9.125 0.25H6.875C5.8415 0.25 5 1.0915 5 2.125V3.25H4.25V13.75ZM13.25 3.25V13.75C14.4905 13.75 15.5 12.7405 15.5 11.5V5.5C15.5 4.2595 14.4905 3.25 13.25 3.25ZM0.5 5.5C0.5 4.2595 1.5095 3.25 2.75 3.25V13.75C1.5095 13.75 0.5 12.7405 0.5 11.5V5.5Z" fill="white"/>
</svg>
