<svg width="42" height="42" viewBox="0 0 42 42" fill="none" xmlns="http://www.w3.org/2000/svg">
<path id="Mask" fill-rule="evenodd" clip-rule="evenodd" d="M23.0832 6.41699C23.0832 7.56908 22.1498 8.50033 20.9998 8.50033C19.8498 8.50033 18.9165 7.56908 18.9165 6.41699V2.25033C18.9165 1.09824 19.8498 0.166992 20.9998 0.166992C22.1498 0.166992 23.0832 1.09824 23.0832 2.25033V6.41699ZM23.0832 28.2082C23.0832 27.4645 23.4811 26.7749 24.1269 26.402C26.054 25.2957 27.2498 23.2249 27.2498 20.9999C27.2498 17.5541 24.4457 14.7499 20.9998 14.7499C17.554 14.7499 14.7498 17.5541 14.7498 20.9999C14.7498 23.2249 15.9457 25.2957 17.8728 26.402C18.5186 26.7749 18.9165 27.4645 18.9165 28.2082V37.6666H23.0832V28.2082ZM10.5832 20.9999C10.5832 15.2562 15.2561 10.5832 20.9998 10.5832C26.7436 10.5832 31.4165 15.2562 31.4165 20.9999C31.4165 24.2895 29.8457 27.3791 27.2498 29.3249V37.6666C27.2498 39.9645 25.3811 41.8332 23.0832 41.8332H18.9165C16.6186 41.8332 14.7498 39.9645 14.7498 37.6666V29.3249C12.1519 27.3791 10.5832 24.2895 10.5832 20.9999ZM39.7498 18.917H35.5832C34.4311 18.917 33.4998 19.8482 33.4998 21.0003C33.4998 22.1524 34.4311 23.0837 35.5832 23.0837H39.7498C40.9019 23.0837 41.8332 22.1524 41.8332 21.0003C41.8332 19.8482 40.9019 18.917 39.7498 18.917ZM2.24984 18.917H6.4165C7.5665 18.917 8.49984 19.8482 8.49984 21.0003C8.49984 22.1524 7.5665 23.0837 6.4165 23.0837H2.24984C1.09984 23.0837 0.166504 22.1524 0.166504 21.0003C0.166504 19.8482 1.09984 18.917 2.24984 18.917ZM11.9575 9.37116L8.95963 6.47533C8.13254 5.67741 6.81588 5.70241 6.0138 6.52949C5.2138 7.35449 5.23671 8.67533 6.0638 9.47533L9.06171 12.3691C9.46796 12.7607 9.9888 12.9545 10.5096 12.9545C11.0555 12.9545 11.5992 12.7399 12.0075 12.317C12.8075 11.492 12.7846 10.1712 11.9575 9.37116ZM33.0403 6.47887C33.8653 5.68095 35.1903 5.70387 35.984 6.52887C36.784 7.35387 36.7611 8.6747 35.934 9.47262L32.9361 12.3685C32.534 12.758 32.0111 12.9539 31.4903 12.9539C30.9444 12.9539 30.3986 12.7393 29.9923 12.3164C29.1923 11.4914 29.2153 10.1705 30.0423 9.37262L33.0403 6.47887Z" fill="#DCAA37"/>
</svg>
