<svg width="16" height="16" viewBox="0 0 16 16" fill="none" xmlns="http://www.w3.org/2000/svg">
<path id="Mask" fill-rule="evenodd" clip-rule="evenodd" d="M8.75 2.75C8.75 3.16475 8.414 3.5 8 3.5C7.586 3.5 7.25 3.16475 7.25 2.75V1.25C7.25 0.83525 7.586 0.5 8 0.5C8.414 0.5 8.75 0.83525 8.75 1.25V2.75ZM4.25 8C4.25 5.93225 5.93225 4.25 8 4.25C10.0677 4.25 11.75 5.93225 11.75 8C11.75 9.18425 11.1845 10.2965 10.25 10.997V14C10.25 14.8273 9.57725 15.5 8.75 15.5H7.25C6.42275 15.5 5.75 14.8273 5.75 14V10.997C4.81475 10.2965 4.25 9.18425 4.25 8ZM14.75 7.25H13.25C12.8352 7.25 12.5 7.58525 12.5 8C12.5 8.41475 12.8352 8.75 13.25 8.75H14.75C15.1648 8.75 15.5 8.41475 15.5 8C15.5 7.58525 15.1648 7.25 14.75 7.25ZM1.25 7.25H2.75C3.164 7.25 3.5 7.58525 3.5 8C3.5 8.41475 3.164 8.75 2.75 8.75H1.25C0.836 8.75 0.5 8.41475 0.5 8C0.5 7.58525 0.836 7.25 1.25 7.25ZM4.74477 3.8135L3.66552 2.771C3.36777 2.48375 2.89377 2.49275 2.60503 2.7905C2.31703 3.0875 2.32528 3.563 2.62302 3.851L3.70227 4.89275C3.84853 5.03375 4.03603 5.1035 4.22353 5.1035C4.42002 5.1035 4.61578 5.02625 4.76277 4.874C5.05077 4.577 5.04252 4.1015 4.74477 3.8135ZM12.3345 2.77227C12.6315 2.48502 13.1086 2.49327 13.3943 2.79027C13.6823 3.08728 13.674 3.56278 13.3763 3.85003L12.297 4.89253C12.1523 5.03277 11.964 5.10328 11.7765 5.10328C11.58 5.10328 11.3835 5.02603 11.2373 4.87378C10.9493 4.57678 10.9576 4.10127 11.2553 3.81402L12.3345 2.77227Z" fill="white"/>
</svg>
