<svg width="24" height="24" viewBox="0 0 24 24" fill="none" xmlns="http://www.w3.org/2000/svg">
<path fill-rule="evenodd" clip-rule="evenodd" d="M11.9998 15.5002C11.7438 15.5002 11.4878 15.4023 11.2928 15.2073L7.29276 11.2072C6.90176 10.8162 6.90176 10.1842 7.29276 9.79325C7.68376 9.40225 8.31576 9.40225 8.70676 9.79325L12.0118 13.0982L15.3048 9.91825C15.7038 9.53525 16.3348 9.54625 16.7188 9.94325C17.1028 10.3403 17.0918 10.9742 16.6948 11.3572L12.6948 15.2193C12.4998 15.4073 12.2498 15.5002 11.9998 15.5002Z" fill="#EBEBEB"/>
<mask id="mask0_1_13277" style="mask-type:luminance" maskUnits="userSpaceOnUse" x="6" y="9" width="11" height="7">
<path fill-rule="evenodd" clip-rule="evenodd" d="M11.9998 15.5002C11.7438 15.5002 11.4878 15.4023 11.2928 15.2073L7.29276 11.2072C6.90176 10.8162 6.90176 10.1842 7.29276 9.79325C7.68376 9.40225 8.31576 9.40225 8.70676 9.79325L12.0118 13.0982L15.3048 9.91825C15.7038 9.53525 16.3348 9.54625 16.7188 9.94325C17.1028 10.3403 17.0918 10.9742 16.6948 11.3572L12.6948 15.2193C12.4998 15.4073 12.2498 15.5002 11.9998 15.5002Z" fill="white"/>
</mask>
<g mask="url(#mask0_1_13277)">
<rect width="24" height="24" fill="#EBEBEB"/>
</g>
</svg>
