<svg width="38" height="38" viewBox="0 0 38 38" fill="none" xmlns="http://www.w3.org/2000/svg">
<path id="Mask" fill-rule="evenodd" clip-rule="evenodd" d="M32.9382 27.2564L21.084 32.7648V18.7731L33.584 12.9669V26.3731C33.584 26.7356 33.3382 27.0731 32.9382 27.2564ZM5.04858 27.2585C4.65483 27.0752 4.41316 26.7377 4.41733 26.3585V12.9669L16.9173 18.7731V32.7689L5.04858 27.2585ZM18.3902 4.5502C18.5798 4.46061 18.7902 4.41686 19.0007 4.41686C19.209 4.41686 19.4194 4.46061 19.609 4.5502L30.7111 9.70436L19.0007 15.146L7.28816 9.70436L18.3902 4.5502ZM37.034 9.12311C37.0277 9.10645 37.0298 9.0877 37.0215 9.07103C37.0152 9.05436 36.9986 9.04395 36.9882 9.02728C36.8923 8.86895 36.7757 8.72936 36.6652 8.58353C36.6007 8.5127 36.5486 8.43353 36.4777 8.37311C35.9882 7.79811 35.4111 7.29186 34.6944 6.96061L21.3611 0.766863C21.359 0.766863 21.3569 0.766863 21.3569 0.76478C19.859 0.0731132 18.1402 0.0751965 16.6382 0.766863L3.31108 6.95853C2.59441 7.28978 2.01524 7.79395 1.52566 8.36895C1.44858 8.43353 1.39233 8.52103 1.32358 8.59811C1.21524 8.7377 1.10483 8.87311 1.01316 9.02311C1.00274 9.04186 0.986078 9.05436 0.977744 9.07103C0.969411 9.08978 0.971494 9.10853 0.963161 9.12728C0.523578 9.88145 0.250661 10.7294 0.250661 11.621V26.3439C0.233994 28.3231 1.42566 30.1648 3.28816 31.0356L16.6194 37.2273C17.3736 37.5794 18.1819 37.7544 18.9923 37.7544C19.8007 37.7544 20.609 37.5794 21.3611 37.2294L34.6882 31.0377C36.5465 30.1794 37.7486 28.3502 37.7507 26.3752V11.6189C37.7486 10.7273 37.4757 9.87936 37.034 9.12311Z" fill="#DCAA37"/>
</svg>
