<svg width="60" height="60" viewBox="0 0 60 60" fill="none" xmlns="http://www.w3.org/2000/svg">
<path id="Vector" d="M5.772 0.0530154C3.84416 -0.0713001 2.1875 0.0620217 2.1875 0.0620217L0.206122 0.206122L0.0620217 2.1875C0.0620217 2.1875 -0.0713139 3.84416 0.0530154 5.772C0.177329 7.69984 0.191002 9.97665 2.07943 11.8602C3.37415 13.1583 5.0758 13.808 6.78971 13.8506C5.82991 17.7744 4.66423 23.3871 4.66423 29.8998C4.66423 36.46 5.74975 42.1986 6.6276 46.1651C4.96969 46.2461 3.33294 46.884 2.07943 48.1375C0.195302 50.0217 0.177336 52.3075 0.0530154 54.2348C-0.0713052 56.1621 0.0620217 57.8103 0.0620217 57.8103L0.206122 59.7916L2.1875 59.9448C2.1875 59.9448 3.84416 60.0691 5.772 59.9448C7.69984 59.8204 9.97665 59.8068 11.8602 57.9183C13.0968 56.6818 13.7445 55.076 13.8416 53.4422C17.8264 54.3196 23.5258 55.3876 30.0259 55.3876C36.5953 55.3876 42.2428 54.2045 46.1471 53.2441C46.1978 54.946 46.8509 56.6316 48.1375 57.9183C50.0211 59.8068 52.3069 59.8204 54.2348 59.9448C56.1626 60.0691 57.8103 59.9448 57.8103 59.9448L59.7916 59.7916L59.9448 57.8103C59.9448 57.8103 60.0691 56.1621 59.9448 54.2348C59.8204 52.3075 59.8024 50.0217 57.9183 48.1375C56.6761 46.8953 55.0656 46.2558 53.4242 46.1651C54.3021 42.1986 55.3876 36.46 55.3876 29.8998C55.3876 23.3871 54.2219 17.7744 53.2621 13.8506C54.9558 13.7951 56.6369 13.1417 57.9183 11.8602C59.8068 9.97665 59.8204 7.69984 59.9448 5.772C60.0691 3.84416 59.9448 2.1875 59.9448 2.1875L59.7916 0.206122L57.8103 0.0620217C57.8103 0.0620217 56.1626 -0.0713139 54.2348 0.0530154C52.3069 0.177329 50.0211 0.191002 48.1375 2.07943C46.8407 3.37956 46.1862 5.08771 46.1471 6.80772C42.2428 5.84728 36.5953 4.66423 30.0259 4.66423C23.5195 4.66423 17.8155 5.73216 13.8326 6.60958C13.7462 4.95741 13.107 3.32939 11.8602 2.07943C9.97663 0.191016 7.69984 0.177331 5.772 0.0530154ZM4.65522 4.65522C5.03575 4.65867 5.04116 4.62728 5.47479 4.65522C7.03303 4.7557 8.68519 5.42514 8.59997 5.3397C9.52108 6.26317 9.5184 7.68389 8.59997 8.59997C7.6765 9.52108 6.25578 9.5184 5.3397 8.59997C5.42514 8.68519 4.7557 7.03303 4.65522 5.47479C4.62728 5.04115 4.65867 5.03575 4.65522 4.65522ZM54.532 4.65522C54.9622 4.62746 54.9644 4.65878 55.3425 4.65522C55.3391 5.03575 55.3707 5.04116 55.3425 5.47479C55.2421 7.03303 54.5816 8.68519 54.6671 8.59997H54.6581C53.742 9.5184 52.3213 9.52108 51.3978 8.59997C50.4794 7.68389 50.4855 6.26317 51.4068 5.3397C51.3216 5.42514 52.9737 4.7557 54.532 4.65522ZM30.0259 9.27544C38.0868 9.27544 46.3698 11.5535 48.0655 12.0314C48.5969 13.9327 50.7764 21.9658 50.7764 29.8998C50.7764 37.811 48.8109 45.9213 48.2996 47.9664C46.8886 48.3677 38.2526 50.7764 30.0259 50.7764C22.1518 50.7764 14.1082 48.842 12.0043 48.3176C11.9511 48.2608 11.9157 48.1929 11.8602 48.1375C11.8325 48.1099 11.7983 48.0926 11.7702 48.0655C11.2841 46.1284 9.27544 37.8797 9.27544 29.8998C9.27544 21.7489 11.6212 13.2701 12.0584 11.7251C14.2185 11.1879 22.1891 9.27544 30.0259 9.27544ZM6.96983 50.7133C7.5551 50.7152 8.13893 50.9468 8.59997 51.4068C9.51979 52.3243 9.52317 53.7349 8.59997 54.6581V54.6671C8.68519 54.5816 7.03303 55.2421 5.47479 55.3425C5.04115 55.3707 5.03575 55.3391 4.65522 55.3425C4.65878 54.9647 4.62746 54.962 4.65522 54.532C4.7557 52.9743 5.42084 51.3167 5.3397 51.3978C5.79787 50.9396 6.38457 50.7115 6.96983 50.7133ZM53.0279 50.7133C53.6132 50.7115 54.1999 50.9397 54.6581 51.3978C54.5769 51.3166 55.2421 52.9743 55.3425 54.532C55.3702 54.962 55.339 54.9646 55.3425 55.3425C54.9644 55.339 54.9622 55.3702 54.532 55.3425C52.9737 55.2421 51.3216 54.5816 51.4068 54.6671V54.6581H51.3978C50.4746 53.7349 50.478 52.3243 51.3978 51.4068C51.8588 50.9469 52.4427 50.7152 53.0279 50.7133Z" fill="#579A8C"/>
</svg>
