<svg width="65" height="60" viewBox="0 0 65 60" fill="none" xmlns="http://www.w3.org/2000/svg">
<path id="Vector" d="M0 0V4.28571H60V0H0ZM0 8.57143V12.8571H60V8.57143H0ZM0 17.1429V21.4286H8.57143V45C8.57143 48.5251 11.4749 51.4286 15 51.4286H30V47.1429H15C13.7937 47.1429 12.8571 46.2063 12.8571 45V21.4286H47.1429V25.7143H51.4286V21.4286H60V17.1429H0ZM47.1429 30V34.5201C45.7835 34.7999 44.5308 35.3492 43.4096 36.0938L40.0865 32.7706L37.0564 35.8008L40.3795 39.1239C39.6354 40.2458 39.0682 41.4972 38.7891 42.8571H34.2857V47.1429H38.7891C39.0682 48.5028 39.6354 49.7542 40.3795 50.8761L37.0564 54.1992L40.0865 57.2294L43.4096 53.9062C44.5308 54.6508 45.7835 55.2001 47.1429 55.4799V60H51.4286V55.4799C52.7434 55.2093 53.9593 54.6887 55.053 53.9816L58.4096 57.6897L61.5904 54.8103L58.1166 50.9849C58.899 49.8361 59.494 48.5475 59.7824 47.1429H64.2857V42.8571H59.7824C59.5048 41.5051 58.9461 40.2578 58.2087 39.1406L61.4983 35.9012L58.5017 32.846L55.1786 36.1105C54.0526 35.3592 52.7958 34.8015 51.4286 34.5201V30H47.1429ZM49.2857 38.5714C52.8615 38.5714 55.7143 41.4242 55.7143 45C55.7143 48.5758 52.8615 51.4286 49.2857 51.4286C45.7099 51.4286 42.8571 48.5758 42.8571 45C42.8571 41.4242 45.7099 38.5714 49.2857 38.5714Z" fill="#579A8C"/>
</svg>
