<svg width="18" height="16" viewBox="0 0 18 16" fill="none" xmlns="http://www.w3.org/2000/svg">
<path id="Mask" fill-rule="evenodd" clip-rule="evenodd" d="M16.5832 9.08366L3.72942 9.08366L7.66517 13.807C8.04867 14.2663 7.98584 14.9499 7.52651 15.3323C7.06609 15.7158 6.38359 15.653 6.00009 15.1937L0.583422 8.69366C0.541172 8.64274 0.520588 8.58316 0.489172 8.52683C0.463171 8.48133 0.431755 8.44233 0.412254 8.39249C0.363504 8.26791 0.334255 8.13683 0.334255 8.00466C0.334255 8.00358 0.333172 8.00141 0.333172 8.00033C0.333172 7.99924 0.334255 7.99708 0.334255 7.99599C0.334255 7.86383 0.363504 7.73274 0.412254 7.60816C0.431755 7.55833 0.463171 7.51933 0.489172 7.47383C0.520588 7.41749 0.541172 7.35791 0.583422 7.30699L6.00009 0.806992C6.21567 0.550242 6.52334 0.416992 6.83317 0.416992C7.078 0.416992 7.32392 0.499326 7.52651 0.668326C7.98584 1.05074 8.04867 1.73433 7.66517 2.19366L3.72942 6.91699L16.5832 6.91699C17.1812 6.91699 17.6665 7.40233 17.6665 8.00033C17.6665 8.59833 17.1812 9.08366 16.5832 9.08366Z" fill="#255751"/>
</svg>
