<svg width="77" height="60" viewBox="0 0 77 60" fill="none" xmlns="http://www.w3.org/2000/svg">
<path id="Vector" d="M38.29 0.000904053C37.8673 -0.00998111 37.4479 0.0775577 37.0648 0.256608L1.6072 16.6217C1.13683 16.8412 0.738861 17.1904 0.460034 17.6282C0.181208 18.0661 0.0330974 18.5744 0.0330974 19.0935C0.0330974 19.6125 0.181208 20.1208 0.460034 20.5587C0.738861 20.9965 1.13683 21.3457 1.6072 21.5653L37.0648 37.9303C37.4223 38.0948 37.8112 38.1799 38.2048 38.1799C38.5984 38.1799 38.9873 38.0948 39.3448 37.9303L74.8024 21.5653C75.2728 21.3457 75.6707 20.9965 75.9496 20.5587C76.2284 20.1208 76.3765 19.6125 76.3765 19.0935C76.3765 18.5744 76.2284 18.0661 75.9496 17.6282C75.6707 17.1904 75.2728 16.8412 74.8024 16.6217L39.3448 0.256608C39.0139 0.101582 38.6552 0.0146262 38.29 0.000904053ZM38.2048 5.72228L67.1633 19.0935L38.2048 32.454L9.24635 19.0935L38.2048 5.72228ZM73.7583 27.2014C73.326 27.212 72.9023 27.3252 72.5224 27.5317L38.2048 43.364L3.88723 27.5317C3.47606 27.3338 3.02181 27.2422 2.56609 27.2653C1.95712 27.3015 1.37784 27.5407 0.920841 27.9448C0.463838 28.3489 0.155486 28.8946 0.0450627 29.4946C-0.0653608 30.0945 0.0285184 30.7142 0.311697 31.2545C0.594876 31.7949 1.05101 32.2247 1.6072 32.4753L37.0648 48.8403C37.4223 49.0048 37.8112 49.09 38.2048 49.09C38.5984 49.09 38.9873 49.0048 39.3448 48.8403L74.8024 32.4753C75.4029 32.245 75.9027 31.81 76.2136 31.2471C76.5245 30.6841 76.6265 30.0294 76.5016 29.3986C76.3767 28.7677 76.0329 28.2013 75.531 27.7993C75.029 27.3972 74.4012 27.1855 73.7583 27.2014ZM73.7583 38.1114C73.326 38.122 72.9023 38.2352 72.5224 38.4417L38.2048 54.274L3.88723 38.4417C3.47606 38.2438 3.02181 38.1522 2.56609 38.1754C1.95712 38.2115 1.37784 38.4508 0.920841 38.8549C0.463838 39.259 0.155486 39.8046 0.0450627 40.4046C-0.0653608 41.0045 0.0285184 41.6242 0.311697 42.1646C0.594876 42.7049 1.05101 43.1347 1.6072 43.3853L37.0648 59.7504C37.4223 59.9148 37.8112 60 38.2048 60C38.5984 60 38.9873 59.9148 39.3448 59.7504L74.8024 43.3853C75.4029 43.1551 75.9027 42.7201 76.2136 42.1571C76.5245 41.5942 76.6265 40.9395 76.5016 40.3086C76.3767 39.6778 76.0329 39.1113 75.531 38.7093C75.029 38.3073 74.4012 38.0955 73.7583 38.1114Z" fill="#579A8C"/>
</svg>
