<svg width="30" height="30" viewBox="0 0 30 30" fill="none" xmlns="http://www.w3.org/2000/svg">
<g id="WhatsApp">
<path id="Vector" fill-rule="evenodd" clip-rule="evenodd" d="M16.0264 3.69799C18.8124 3.83491 21.4085 4.98378 23.3913 6.96793C25.5063 9.08425 26.6704 11.8974 26.6693 14.8891C26.6668 21.0627 21.641 26.0858 15.467 26.0858C13.1453 26.0858 11.3003 25.3725 10.109 24.723L4.17041 26.28L5.75971 20.4778C4.77938 18.7798 4.26353 16.8537 4.26434 14.8802C4.26682 8.70677 9.29221 3.68414 15.4668 3.68414L16.0264 3.69799ZM10.3841 22.696L10.7241 22.8976C12.1537 23.7456 13.7924 24.1942 15.4632 24.1949H15.4669C20.5989 24.1949 24.7758 20.0199 24.7778 14.8885C24.7788 12.4018 23.8113 10.0636 22.0533 8.30457C20.2954 6.54541 17.9576 5.57607 15.4707 5.57526C10.3347 5.57526 6.1578 9.74974 6.15575 14.8809C6.15505 16.6394 6.64729 18.3519 7.57934 19.8336L7.80072 20.1857L6.86011 23.6199L10.3841 22.696ZM21.1106 17.5517C21.0407 17.4349 20.8541 17.3649 20.5742 17.2249C20.2943 17.0848 18.9181 16.408 18.6615 16.3146C18.405 16.2213 18.2183 16.1747 18.0318 16.4547C17.8452 16.7347 17.3088 17.3649 17.1454 17.5517C16.9822 17.7384 16.8189 17.7617 16.539 17.6217C16.2591 17.4817 15.3572 17.1862 14.2881 16.2331C13.4559 15.4912 12.8942 14.5751 12.7309 14.295C12.5677 14.0149 12.7135 13.8635 12.8536 13.724C12.9795 13.5986 13.1336 13.3972 13.2735 13.2338C13.4135 13.0705 13.4601 12.9538 13.5534 12.7671C13.6467 12.5804 13.6 12.4171 13.5301 12.277C13.4601 12.1369 12.9003 10.7598 12.6671 10.1996C12.4398 9.65414 12.2091 9.72798 12.0373 9.71937C11.8742 9.71129 11.6874 9.70951 11.5008 9.70951C11.3142 9.70951 11.011 9.77948 10.7544 10.0596C10.4978 10.3397 9.7747 11.0166 9.7747 12.3936C9.7747 13.7707 10.7777 15.1009 10.9177 15.2877C11.0576 15.4745 12.8914 18.3002 15.6993 19.5122C16.3671 19.8004 16.8885 19.9725 17.295 20.1015C17.9656 20.3144 18.5757 20.2844 19.0581 20.2123C19.5958 20.132 20.7141 19.5355 20.9474 18.8821C21.1806 18.2285 21.1806 17.6683 21.1106 17.5517Z" fill="#DCAA37"/>
</g>
</svg>
